Simulation
nRows=41
nColumns=15
endheader
time  TH_x TH_y TH_z SC_y  SC_z  SC_x  AC_y  AC_z  AC_x  GH_y  GH_z  GH_yy  EL_x  PS_y
2.0  0.000000  0.000000  0.000000  -29.931611757651908  3.239727736918472  17.62359252819793  55.62366162426663  9.965256224309876  3.522598738254929  60.99162893124717  48.377501905966476  -60.4710793611934  23.019559669768444  0.000000
2.04  0.000000  0.000000  0.000000  -29.937702548942408  3.182111238639103  17.72052445437767  55.67418879348112  9.90542247464514  3.346724235996396  61.70952549082679  48.20930557923556  -61.70915538002847  22.94411129146005  0.000000
2.08  0.000000  0.000000  0.000000  -29.917706659941505  3.11850364936251  17.765441600822022  55.712523619686756  9.883510853515633  3.2229034181374696  62.600750641081525  48.020541882747715  -63.23816026118797  22.92486695541353  0.000000
2.12  0.000000  0.000000  0.000000  -29.836024245606122  3.0370991371589717  17.737997470071946  55.75039477078079  9.893715785338983  3.147534577144572  63.65535230575664  47.7910361393775  -65.02347980628618  22.95593513141214  0.000000
2.16  0.000000  0.000000  0.000000  -29.657218548872272  2.931612317691028  17.61089606126344  55.80131102596778  9.929061429478974  3.116631186250143  64.84660191222162  47.51589882204541  -66.9459374225505  23.02412631914734  0.000000
2.2  0.000000  0.000000  0.000000  -29.3569836331058  2.8076220517409447  17.354810731789822  55.87707713856168  9.980878514983209  3.128971647532197  66.12400685644462  47.207495250370286  -68.83380763948959  23.115765247353963  0.000000
2.24  0.000000  0.000000  0.000000  -28.92185304663414  2.670998925356873  16.95434572233857  55.983349065251  10.039110933530797  3.1821855033354014  67.44404518196264  46.87887051624255  -70.53905327041545  23.210538382633057  0.000000
2.2800000000000002  0.000000  0.000000  0.000000  -28.375535447624483  2.5306485690121376  16.428132340769196  56.120194082546256  10.096396027121955  3.270880192702855  68.78711839077867  46.54075746776863  -71.98356382991663  23.282146684761134  0.000000
2.32  0.000000  0.000000  0.000000  -27.752527583038425  2.389862451816238  15.802819582520298  56.271917692204106  10.15570808955645  3.3855383760155036  70.15041546204984  46.20729956801615  -73.15421855875431  23.30052760355795  0.000000
2.36  0.000000  0.000000  0.000000  -27.11664947700177  2.248775371187407  15.134943917897198  56.43000571632705  10.226051340142723  3.5142144277882292  71.54835041417674  45.890642205393604  -74.08459366729365  23.245331019238165  0.000000
2.4  0.000000  0.000000  0.000000  -26.52059420802004  2.1084406947566796  14.470176359007308  56.58603585205329  10.316261601158544  3.6430552878483815  72.97808603294176  45.61173070088886  -74.81241882933696  23.1257736187178  0.000000
2.44  0.000000  0.000000  0.000000  -26.024429353514318  1.9622151434431205  13.870119454397162  56.74122246629103  10.436817575549586  3.7556665946603025  74.43442371121682  45.379296307057295  -75.37917934649143  22.96551791454707  0.000000
2.48  0.000000  0.000000  0.000000  -25.659588836074295  1.8070781131940457  13.364800721306313  56.89324232088441  10.599255745745745  3.8404967075916163  75.89765066265336  45.20187646029008  -75.81466041233392  22.800210400648027  0.000000
2.52  0.000000  0.000000  0.000000  -25.430768759393903  1.6468366314212135  12.96622959084524  57.04264779436338  10.798441198039377  3.8989966780968937  77.33080952557832  45.08084881755808  -76.12239518077993  22.655918057346724  0.000000
2.56  0.000000  0.000000  0.000000  -25.289493218231453  1.4950646729282095  12.655345150367216  57.18313451999841  11.006333572111863  3.9491818815524713  78.6759593654268  45.00709877282302  -76.27820354784872  22.537975295623617  0.000000
2.6  0.000000  0.000000  0.000000  -25.15529230654054  1.3749059502602714  12.386824930603167  57.29922139413167  11.177131052796822  4.021493738039436  79.8510701957497  44.966983502901535  -76.23620998449883  22.441950436715416  0.000000
2.64  0.000000  0.000000  0.000000  -24.957750083764836  1.2996300600130082  12.123207227972639  57.37948478253471  11.27684727349104  4.136837113516447  80.80218336416057  44.93611280407747  -75.98508727184591  22.361232091411836  0.000000
2.68  0.000000  0.000000  0.000000  -24.6780886207188  1.2699452120403325  11.84494016074603  57.41936948813323  11.301048602416348  4.29682896231745  81.50924202351234  44.89390470586351  -75.568875086717  22.306354226143746  0.000000
2.72  0.000000  0.000000  0.000000  -24.34073690147386  1.2749401321175515  11.556211370387903  57.41623126032863  11.273331737748276  4.479989958371572  81.9892833275883  44.82440196937591  -75.08764724750263  22.302113088400322  0.000000
2.7600000000000002  0.000000  0.000000  0.000000  -24.01221788855576  1.2972126050996338  11.28876787352419  57.37516960955456  11.230117748997536  4.654366817636498  82.27447416716963  44.71513463718622  -74.66350990300982  22.3680387836187  0.000000
2.8000000000000003  0.000000  0.000000  0.000000  -23.759797767755195  1.329747800620361  11.07388262865801  57.29854981681598  11.20454000632033  4.791682413605213  82.38994211699435  44.56397254877201  -74.39811604692281  22.500772162154192  0.000000
2.84  0.000000  0.000000  0.000000  -23.67142621176919  1.3704276107663746  10.954034141056098  57.207987307539  11.226467360246945  4.874551815906527  82.3666819624638  44.376154796169914  -74.36381547915722  22.656887545835463  0.000000
2.88  0.000000  0.000000  0.000000  -23.815098191447863  1.4236048336599099  10.95640939034983  57.126870365886354  11.319076217757289  4.897686818171083  82.23659911311908  44.164939177429154  -74.59174541143047  22.774220061557347  0.000000
2.92  0.000000  0.000000  0.000000  -24.22137181074536  1.4954054686561253  11.08855262245299  57.07398336410429  11.488045636506278  4.869766043814509  82.01553963767485  43.94641447941264  -75.06338163374541  22.79098694762837  0.000000
2.96  0.000000  0.000000  0.000000  -24.837030922382763  1.5943614825179457  11.327272430179848  57.03935602029755  11.706643679641527  4.814281538085195  81.68088231179725  43.72891417952508  -75.68689626493442  22.661523937828594  0.000000
3.0  0.000000  0.000000  0.000000  -25.53926536622183  1.737604980632098  11.617442122751957  56.9866598332055  11.918256544456755  4.767361683664823  81.15147308040916  43.52393112046339  -76.30180134514575  22.36127128088675  0.000000
3.04  0.000000  0.000000  0.000000  -26.19423467269821  1.9389608747527987  11.907084528961505  56.877716269001105  12.061406880966917  4.764078254143395  80.33874213776687  43.34270568058637  -76.7196196961163  21.88026404576966  0.000000
3.08  0.000000  0.000000  0.000000  -26.726321204131413  2.197078511818191  12.170290905116842  56.70149501668547  12.108689968403548  4.82281519479043  79.17907166497791  43.204461735442436  -76.7782697195782  21.232583238545622  0.000000
3.12  0.000000  0.000000  0.000000  -27.132242421788543  2.4859803849068047  12.413153883041376  56.47340476128124  12.07364203965721  4.942777628114473  77.66071933986227  43.12844129714293  -76.36034736320096  20.45861701319394  0.000000
3.16  0.000000  0.000000  0.000000  -27.469715866662618  2.762173911611083  12.671707672533083  56.23708796055523  12.00722622579333  5.108353841421127  75.81967267785019  43.130772588145604  -75.41137292069054  19.611517892649722  0.000000
3.2  0.000000  0.000000  0.000000  -27.785522149413858  2.9903623842950733  12.971773977307562  56.0178873906295  11.947545812341222  5.3078298094396565  73.7101816631896  43.229473359036525  -73.92129370567163  18.752877037903406  0.000000
3.24  0.000000  0.000000  0.000000  -28.112100450391956  3.155353152757542  13.332266106316279  55.83409818666092  11.916713415110587  5.529795626820484  71.40705229305398  43.44450067214781  -71.9383900686185  17.940031308143666  0.000000
3.2800000000000002  0.000000  0.000000  0.000000  -28.44878964760153  3.2625616298647957  13.748334292352332  55.678033009714596  11.902790931856417  5.768201199979557  68.99695126819381  43.79906121718194  -69.5592119407754  17.23535293953108  0.000000
3.3200000000000003  0.000000  0.000000  0.000000  -28.7872497185627  3.3243797122613374  14.210478501919575  55.54590494201284  11.89538883930843  6.011383100418732  66.57662203813872  44.304283275560024  -66.91019715617313  16.68576840155506  0.000000
3.36  0.000000  0.000000  0.000000  -29.113072137827505  3.3550746331411196  14.692075520170345  55.4296313024509  11.87782828528293  6.253611971067501  64.25170707612678  44.96407166721789  -64.14247299149125  16.343152531616674  0.000000
3.4  0.000000  0.000000  0.000000  -29.42058530689823  3.3729951799602755  15.178219290384853  55.34270922671009  11.83947636531914  6.479714376812115  62.11166888207697  45.764473040605594  -61.3905473885469  16.24167102143757  0.000000
3.44  0.000000  0.000000  0.000000  -29.694963222518393  3.390419731961634  15.643156425538963  55.27869515647362  11.770295800377877  6.6876430667369  60.227885528967256  46.66979149098867  -58.78706373446722  16.400681772037974  0.000000
3.48  0.000000  0.000000  0.000000  -29.931165708728525  3.416264217921968  16.070630709996607  55.24125779035108  11.675408438186347  6.864851526233435  58.63835017167886  47.63265104964101  -56.418555267630495  16.805998609611223  0.000000
3.52  0.000000  0.000000  0.000000  -30.120375259490928  3.4497478422886876  16.446628718303124  55.221863717623165  11.560356830664077  7.013831801078386  57.364635691587075  48.59209435108278  -54.36500626147885  17.403446637069607  0.000000
3.56  0.000000  0.000000  0.000000  -30.27015078413922  3.4860897641589053  16.763407505674596  55.224523547236394  11.439802475405395  7.131433989216522  56.40054736235023  49.49977447791415  -52.648075500039276  18.104213720889398  0.000000
3.6  0.000000  0.000000  0.000000  -30.37101206966402  3.5196722864427787  17.024029093379642  55.24009312437003  11.32148086441285  7.2179029710643645  55.72494583767621  50.300920883161574  -51.299624108128995  18.819781770349884  0.000000
